<svg width="358" height="358" viewBox="0 0 358 358" fill="none" xmlns="http://www.w3.org/2000/svg">
<g id="Mobile/Theme Illustration">
<g id="Sun">
<path id="Vector" opacity="0.15" d="M292.098 216.928C293.72 209.962 294.723 202.804 295.3 195.522C296.744 177.462 296.153 159.003 291.644 141.383C288.305 128.306 282.683 115.766 274.285 105.153C262.946 90.8096 246.838 80.7471 229.698 74.4426C194.98 61.6822 154.406 63.4028 121.035 79.4945C106.988 86.267 94.2194 96.0267 84.9694 108.608C63.7755 137.447 61.7276 178.756 68.3524 212.77C71.3487 228.16 76.6815 243.44 86.5637 255.594C110.644 285.19 154.2 291.26 189.853 291.976C224.118 292.664 258.259 278.472 277.996 249.758C284.992 239.585 289.404 228.532 292.098 216.928Z" fill="#FACC15"/>
<path id="Vector_2" opacity="0.15" d="M308.524 222.633C310.384 214.62 311.535 206.385 312.197 198.008C313.853 177.231 313.175 155.995 308.003 135.724C304.172 120.68 297.723 106.253 288.089 94.0434C275.081 77.542 256.602 65.9657 236.94 58.7128C197.111 44.0326 150.566 46.0121 112.282 64.5247C96.168 72.3161 81.5201 83.5439 70.9086 98.0182C46.5952 131.195 44.2459 178.72 51.8458 217.851C55.2831 235.556 61.4009 253.134 72.7376 267.117C100.362 301.165 150.329 308.149 191.23 308.973C230.538 309.764 269.704 293.437 292.346 260.403C300.372 248.7 305.433 235.983 308.524 222.633Z" fill="#FACC15"/>
<path id="Vector_3" d="M270.373 216.513C271.768 210.53 272.631 204.381 273.128 198.126C274.369 182.613 273.861 166.756 269.983 151.621C267.109 140.388 262.273 129.616 255.048 120.499C245.293 108.178 231.435 99.5347 216.69 94.1191C186.822 83.1579 151.916 84.636 123.207 98.4587C111.122 104.276 100.137 112.66 92.1797 123.467C73.9465 148.239 72.1847 183.724 77.8841 212.942C80.4618 226.162 85.0496 239.287 93.5513 249.728C114.268 275.15 151.739 280.365 182.411 280.98C211.89 281.571 241.261 269.38 258.241 244.714C264.26 235.976 268.055 226.481 270.373 216.513Z" fill="#111112"/>
<path id="Vector_4" d="M278.65 209.418C280.045 203.435 280.908 197.287 281.405 191.032C282.647 175.518 282.138 159.662 278.26 144.526C275.386 133.293 270.55 122.521 263.326 113.405C253.57 101.084 239.712 92.4401 224.967 87.0245C195.099 76.0633 160.193 77.5414 131.484 91.3641C119.399 97.1817 108.415 105.565 100.457 116.373C82.2236 141.145 80.4618 176.63 86.1612 205.848C88.7389 219.067 93.3267 232.192 101.828 242.633C122.545 268.055 160.016 273.27 190.688 273.885C220.167 274.476 249.538 262.285 266.518 237.62C272.537 228.881 276.332 219.386 278.65 209.418Z" fill="#FACC15"/>
<path id="Vector_5" d="M280.364 209.891C283.131 197.866 284.018 185.32 283.746 172.999C283.474 160.903 281.819 148.689 277.94 137.195C274.417 126.743 269.06 116.881 261.635 108.675C254.54 100.847 245.731 94.6276 236.271 89.957C216.69 80.2846 194.2 76.5718 172.503 78.4873C150.923 80.3911 129.119 87.6748 112.21 101.509C96.1054 114.694 86.8706 133.648 83.3706 153.927C79.9297 173.898 81.1003 195.158 86.3739 214.716C89.2473 225.37 93.7642 235.669 100.835 244.229C106.724 251.359 114.197 257.106 122.344 261.434C138.933 270.267 157.935 273.672 176.499 275.02C185.923 275.706 195.442 276.084 204.83 274.949C214.538 273.778 224.021 271.26 232.961 267.299C251.643 259.022 267.168 244.206 275.292 225.346C277.456 220.356 279.111 215.189 280.364 209.891C280.885 207.668 277.467 206.723 276.947 208.945C274.452 219.528 270.231 229.579 263.81 238.4C258.241 246.038 251.182 252.589 243.26 257.721C227.308 268.044 208.378 272.525 189.494 272.076C171.616 271.65 153.442 269.77 136.497 263.763C128.161 260.807 120.097 256.751 113.144 251.253C105.423 245.152 99.3571 237.43 95.1476 228.55C90.6898 219.138 88.254 208.851 86.7168 198.587C85.2743 188.962 84.754 179.16 85.2388 169.428C86.2084 150.143 91.4229 130.172 103.803 114.954C117.058 98.6479 136.84 88.9282 157.06 84.435C177.871 79.8117 199.959 80.7221 220.249 87.2846C240.031 93.6698 258.016 105.672 268.327 124.094C279.714 144.444 281.5 168.802 279.596 191.611C279.111 197.452 278.26 203.246 276.947 208.957C276.427 211.168 279.856 212.114 280.364 209.891Z" fill="#111112"/>
<path id="Vector_6" d="M178.027 19.2914C180.659 36.1406 179.96 53.294 181.497 70.2527C181.707 72.5763 185.201 72.5885 184.991 70.2527C183.419 52.9655 184.083 35.508 181.392 18.3182C181.043 16.0067 177.666 16.9921 178.027 19.2914Z" fill="#111112"/>
<path id="Vector_7" d="M227.956 79.3003C234.324 71.9112 240.482 64.4376 245.862 56.428C251.126 48.6065 255.866 40.5218 260.846 32.5498C263.694 27.9998 266.615 23.4874 269.747 19.0784C270.84 17.546 268.107 16.1265 267.025 17.6589C256.076 33.0763 247.68 49.8568 236.037 64.8888C232.601 69.326 228.912 73.6034 225.235 77.8714C224.709 78.4824 225.14 79.4413 225.802 79.7986C226.601 80.2404 227.431 79.902 227.956 79.3003Z" fill="#111112"/>
<path id="Vector_8" d="M269.283 108.898C278.445 105.031 288.212 103.128 297.845 100.847C307.153 98.6392 316.557 96.5778 325.756 93.9308C330.983 92.4304 336.126 90.6251 341.064 88.3441C343.176 87.3683 341.341 84.209 339.241 85.1848C330.621 89.1736 321.35 91.4668 312.163 93.638C302.831 95.8459 293.463 97.9805 284.156 100.31C278.771 101.652 273.448 103.226 268.329 105.373C267.424 105.751 266.796 106.58 267.061 107.629C267.279 108.495 268.389 109.288 269.283 108.898Z" fill="#111112"/>
<path id="Vector_9" d="M284.287 157.979C299.199 155.807 314.208 154.359 329.254 153.623C331.576 153.502 331.588 149.882 329.254 150.003C313.882 150.763 298.558 152.271 283.319 154.491C281.009 154.817 281.989 158.304 284.287 157.979Z" fill="#111112"/>
<path id="Vector_10" d="M278.92 204.568C296.504 213.846 313.921 223.622 331.171 233.897C336.092 236.828 340.995 239.794 345.888 242.807C347.488 243.792 348.903 240.731 347.284 239.734C329.895 229.032 312.33 218.829 294.58 209.147C289.622 206.442 284.645 203.773 279.66 201.139C278.004 200.273 277.292 203.713 278.92 204.568Z" fill="#111112"/>
<path id="Vector_11" d="M259.466 249.154C271.87 263.453 285.406 276.726 299.955 288.789C304.042 292.174 308.201 295.462 312.431 298.653C314.278 300.043 316.065 296.9 314.23 295.522C299.443 284.341 285.573 271.915 272.764 258.449C269.082 254.581 265.495 250.616 261.992 246.579C260.479 244.838 257.953 247.413 259.466 249.154Z" fill="#111112"/>
<path id="Vector_12" d="M206.296 272.518C205.031 282.162 208.157 291.805 209.422 301.322C210.77 311.529 211.617 321.779 213.145 331.965C213.992 337.632 215.042 343.278 216.497 348.86C217.022 350.859 220.471 350.008 219.946 348.01C217.38 338.142 216.08 328.084 214.946 318.026C213.837 308.222 212.655 298.493 210.901 288.764C209.935 283.395 209.171 277.951 209.875 272.528C210.138 270.487 206.558 270.498 206.296 272.518Z" fill="#111112"/>
<path id="Vector_13" d="M154.515 272.228C149.979 284.981 146.793 298.219 145.025 311.7C144.897 312.682 145.257 313.64 146.246 313.943C147.06 314.185 148.269 313.64 148.397 312.67C150.177 299.189 153.352 285.951 157.887 273.198C158.655 271.004 155.282 270.058 154.515 272.228Z" fill="#111112"/>
<path id="Vector_14" d="M51.0878 328.435C65.7426 312.686 78.7664 295.387 89.7939 276.905C92.9464 271.622 95.9407 266.23 98.7767 260.765C99.86 258.679 96.7075 256.824 95.6242 258.923C85.826 277.844 74.0681 295.753 60.5088 312.185C56.6503 316.87 52.6458 321.42 48.5074 325.861C46.9008 327.557 49.4812 330.155 51.0878 328.435Z" fill="#111112"/>
<path id="Vector_15" d="M21.8003 227.808C37.1455 220.663 54.0388 217.534 70.6741 214.451C72.9961 214.026 72.0133 210.601 69.6912 211.038C52.7242 214.18 35.6098 217.451 19.9451 224.75C17.8073 225.742 19.6748 228.788 21.8003 227.808Z" fill="#111112"/>
<path id="Vector_16" d="M13.3003 155.459C29.3855 155.265 45.4706 156.131 61.4838 158.103C65.8985 158.651 70.3131 159.278 74.7188 159.984C76.4361 160.258 76.4181 156.838 74.7188 156.564C58.8944 154.034 42.9711 152.529 27.0298 152.118C22.4533 152.004 17.8858 151.97 13.3093 152.027C11.5651 152.061 11.5651 155.481 13.3003 155.459Z" fill="#111112"/>
<path id="Vector_17" d="M12.837 46.4127C34.0108 59.9547 54.4736 74.6402 73.8277 90.6739C79.2627 95.1758 84.6134 99.7982 89.8677 104.517C91.591 106.07 94.1579 103.518 92.4226 101.965C73.5626 85.0284 53.4733 69.4762 32.5646 55.1397C26.6596 51.0952 20.6943 47.147 14.6567 43.295C12.7044 42.0311 10.8847 45.1608 12.837 46.4127Z" fill="#111112"/>
<path id="Vector_18" d="M99.323 11.6126C111.548 29.0649 122.685 47.2719 132.673 66.1017C133.762 68.15 136.86 66.3293 135.772 64.293C125.795 45.4632 114.658 27.2562 102.421 9.8039C101.105 7.91133 97.9952 9.70807 99.323 11.6126Z" fill="#111112"/>
</g>
<g id="Flash">
<path id="Flash_2" d="M138 9C142.178 15.8201 145.733 17.5493 153.588 18C147.942 22.6597 146.067 26.1372 144.588 33.5885C140.278 26.0167 136.948 23.8574 129 24.5885C135.4 20.7092 137.798 17.6234 138 9Z" fill="#FACC15"/>
<path id="Flash_3" d="M271.206 66C274.551 71.4604 277.397 72.8449 283.687 73.2058C279.166 76.9366 277.665 79.7208 276.481 85.6866C273.03 79.6243 270.364 77.8955 264 78.4808C269.124 75.3749 271.044 72.9042 271.206 66Z" fill="#FACC15"/>
<path id="Flash_4" d="M56.2794 115.007C58.2631 118.244 59.9506 119.065 63.6801 119.279C60.9994 121.492 60.1093 123.142 59.4073 126.68C57.3608 123.085 55.7802 122.06 52.0067 122.407C55.0451 120.566 56.1835 119.101 56.2794 115.007Z" fill="#FACC15"/>
<path id="Flash_5" d="M77.5522 259.311C80.4498 264.041 82.9145 265.24 88.3619 265.552C84.4464 268.784 83.1464 271.195 82.121 276.362C79.1318 271.111 76.823 269.614 71.3113 270.121C75.7493 267.431 77.4122 265.291 77.5522 259.311Z" fill="#FACC15"/>
<path id="Flash_6" d="M228 290.826C231.668 289.74 232.906 288.312 234.087 284.739C235.541 287.924 236.915 289.221 240.174 290.826C236.143 291.88 234.733 293.151 234.087 296.913C233.087 293.476 231.958 291.987 228 290.826Z" fill="#FACC15"/>
<path id="Flash_7" d="M278.957 231.043C284.458 229.414 286.316 227.273 288.087 221.913C290.267 226.691 292.329 228.635 297.217 231.043C291.171 232.625 289.056 234.531 288.087 240.174C286.587 235.019 284.894 232.784 278.957 231.043Z" fill="#FACC15"/>
</g>
</g>
</svg>
